<?xml version="1.0" standalone="no"?>
<!DOCTYPE svg PUBLIC "-//W3C//DTD SVG 20010904//EN"
 "http://www.w3.org/TR/2001/REC-SVG-20010904/DTD/svg10.dtd">
<svg version="1.0" xmlns="http://www.w3.org/2000/svg"
 width="1535.000000pt" height="1535.000000pt" viewBox="0 0 1535.000000 1535.000000"
 preserveAspectRatio="xMidYMid meet">
<metadata>
Created by potrace 1.11, written by Peter Selinger 2001-2013
</metadata>
<g transform="translate(0.000000,1535.000000) scale(0.100000,-0.100000)"
fill="#000000" stroke="none">
<path d="M3547 15343 c-4 -3 -7 -406 -7 -895 l0 -888 163 0 c687 -2 1020 0
1024 3 3 4 6 1345 3 1735 l0 52 -588 0 c-324 0 -592 -3 -595 -7z"/>
<path d="M5899 15328 c-3 -125 0 -1760 4 -1764 5 -6 1178 -6 1184 0 3 3 6
1441 3 1754 l0 32 -595 0 -595 0 -1 -22z"/>
<path d="M8259 15313 c-3 -178 0 -1746 4 -1749 6 -6 1179 -6 1184 0 3 3 6
1632 3 1764 l0 22 -595 0 -595 0 -1 -37z"/>
<path d="M10619 15318 c-3 -150 0 -1750 3 -1753 6 -6 1179 -7 1184 -2 4 4 5
543 4 1455 l0 332 -595 0 -595 0 -1 -32z"/>
<path d="M2360 7675 l0 -5315 5315 0 5315 0 0 5315 0 5315 -5315 0 -5315 0 0
-5315z m9436 -1 l0 -4113 -4117 0 -4116 0 0 4113 0 4113 4116 0 4117 0 0
-4113z"/>
<path d="M5526 10633 c-1 -2 -40 -10 -86 -19 -140 -26 -254 -78 -376 -171 -89
-67 -131 -112 -197 -211 -126 -188 -176 -438 -132 -661 64 -328 283 -575 607
-685 119 -40 315 -49 454 -21 77 16 246 80 252 97 2 4 8 8 14 8 5 0 37 20 71
44 72 51 168 149 217 220 38 56 90 160 90 179 0 7 5 18 12 25 6 6 13 17 14 24
1 7 9 48 18 92 70 334 -58 683 -326 892 -144 112 -307 171 -506 182 -68 4
-125 6 -126 5z"/>
<path d="M9545 6484 c-334 -71 -613 -355 -681 -694 -25 -125 -16 -325 21 -440
88 -278 297 -494 566 -585 218 -75 508 -53 698 51 231 127 366 292 449 548 25
75 27 94 26 246 0 151 -3 173 -28 255 -98 322 -378 573 -697 625 -90 14 -271
11 -354 -6z"/>
<path d="M7 11803 c-4 -3 -7 -271 -7 -595 l0 -588 73 0 c427 -2 1710 0 1713 3
3 2 6 741 4 1105 l0 82 -888 0 c-489 0 -892 -3 -895 -7z"/>
<path d="M13559 11788 c-3 -110 0 -1160 4 -1164 4 -4 1413 -7 1745 -4 l42 0
-2 593 -3 592 -892 3 -893 2 -1 -22z"/>
<path d="M38 9452 l-38 -3 0 -595 0 -594 23 0 c177 -3 1761 1 1764 4 6 5 4
1178 -1 1184 -5 5 -1691 9 -1748 4z"/>
<path d="M13598 9452 c-31 -3 -38 -7 -39 -25 -3 -112 -1 -1159 3 -1163 4 -4
832 -6 1686 -4 l102 0 0 595 c0 469 -3 595 -12 596 -53 2 -1711 3 -1740 1z"/>
<path d="M23 7092 l-23 -3 0 -595 0 -594 103 0 c572 -3 1680 0 1684 3 6 6 5
1179 -1 1185 -6 5 -1727 9 -1763 4z"/>
<path d="M13603 7092 c-24 -2 -43 -8 -44 -15 -3 -61 0 -1169 4 -1173 4 -4
1168 -7 1705 -4 l82 0 0 595 c0 522 -2 595 -15 596 -70 2 -1700 3 -1732 1z"/>
<path d="M22 4732 l-22 -3 2 -592 3 -592 893 -3 892 -2 0 172 c2 740 1 1011
-4 1015 -6 6 -1725 10 -1764 5z"/>
<path d="M13583 4732 c-18 -3 -23 -10 -24 -35 0 -18 -1 -284 -1 -592 l0 -560
893 0 894 0 3 593 2 592 -27 1 c-123 2 -1723 3 -1740 1z"/>
<path d="M3567 1792 l-27 -3 2 -892 3 -892 593 -3 592 -2 0 62 c3 439 0 1722
-4 1726 -6 5 -1112 9 -1159 4z"/>
<path d="M5923 1792 c-19 -3 -23 -10 -24 -40 0 -49 0 -1712 0 -1734 1 -17 36
-18 596 -18 l595 0 0 53 c3 389 -1 1731 -4 1735 -6 5 -1127 9 -1163 4z"/>
<path d="M8277 1792 c-12 -3 -17 -14 -18 -40 0 -42 0 -1683 1 -1724 l0 -28
595 0 595 0 0 93 c3 581 0 1690 -4 1694 -5 6 -1141 10 -1169 5z"/>
<path d="M10628 1789 c-6 -4 -10 -309 -10 -870 0 -475 1 -876 1 -891 l1 -28
595 0 595 0 0 173 c1 928 -1 1611 -5 1615 -7 7 -1166 8 -1177 1z"/>
</g>
</svg>
